<svg width="25" height="25" viewBox="0 0 25 25" fill="none" xmlns="http://www.w3.org/2000/svg">
<path d="M9.37503 22.2222C10.3339 22.2222 11.1111 21.4449 11.1111 20.4861C11.1111 19.5273 10.3339 18.75 9.37503 18.75C8.4162 18.75 7.63892 19.5273 7.63892 20.4861C7.63892 21.4449 8.4162 22.2222 9.37503 22.2222Z" fill="#FFA200"/>
<path d="M18.4029 22.2222C19.3617 22.2222 20.139 21.4449 20.139 20.4861C20.139 19.5273 19.3617 18.75 18.4029 18.75C17.444 18.75 16.6667 19.5273 16.6667 20.4861C16.6667 21.4449 17.444 22.2222 18.4029 22.2222Z" fill="#FFA200"/>
<path d="M22.5107 4.80345L22.5201 4.81574L22.5302 4.82753C22.5396 4.83845 22.5463 4.85136 22.5499 4.86527C22.5529 4.87708 22.5537 4.88935 22.5521 4.90141L20.3341 13.9118C20.329 13.9327 20.3168 13.9513 20.2996 13.9643C20.2824 13.9774 20.2613 13.9842 20.2397 13.9835L20.231 13.9833H20.2222H9.50695H9.29041L9.12378 14.1216L7.45017 15.5105L7.36557 15.5807L7.31136 15.6763C7.22102 15.8357 7.17331 16.0157 7.17284 16.1988C7.17236 16.382 7.21914 16.5623 7.30865 16.7221C7.39816 16.8819 7.52738 17.016 7.68383 17.1113C7.84027 17.2067 8.01866 17.26 8.20174 17.2663L8.21198 17.2666H8.22223H19.9236C19.9487 17.2666 19.9727 17.2766 19.9904 17.2943C20.0081 17.312 20.0181 17.336 20.0181 17.3611C20.0181 17.3861 20.0081 17.4101 19.9904 17.4278C19.9727 17.4456 19.9487 17.4555 19.9236 17.4555H8.33334H8.3185L8.30369 17.4562C8.09956 17.4663 7.8959 17.4285 7.70899 17.3458C7.52422 17.2641 7.36089 17.1407 7.23177 16.9853C7.0561 16.7587 6.96383 16.4785 6.97062 16.1917C6.9773 15.9092 7.07971 15.6375 7.26073 15.4211L7.31333 15.3685L8.4227 14.4565L8.73615 14.1988L8.6137 13.8119L5.43315 3.76334L5.33809 3.46301L5.03689 3.37072L2.5443 2.60697C2.54427 2.60696 2.54423 2.60695 2.5442 2.60694C2.51954 2.59934 2.49891 2.58226 2.48683 2.55946C2.47473 2.53662 2.4722 2.50992 2.47979 2.48522C2.48738 2.46052 2.50447 2.43984 2.5273 2.42775C2.53861 2.42176 2.55098 2.41805 2.56372 2.41684C2.57645 2.41563 2.5893 2.41695 2.60153 2.4207C2.60153 2.4207 2.60154 2.4207 2.60154 2.4207L5.44875 3.2957L5.44987 3.29604C5.46444 3.30049 5.47772 3.3084 5.48858 3.31909C5.49918 3.32953 5.50716 3.34232 5.51188 3.35642L5.82351 4.34672L5.95564 4.76662H6.39584H22.4364C22.4507 4.76671 22.4648 4.77004 22.4776 4.77637C22.4906 4.78276 22.5019 4.79202 22.5107 4.80345Z" stroke="#FFA200" stroke-width="1.2"/>
</svg>
